<svg version="1.1" xmlns="http://www.w3.org/2000/svg" xmlns:xlink="http://www.w3.org/1999/xlink" width="1208" height="623"><defs><clipPath id="ZdqUgFnOBDFO"><path fill="none" stroke="none" d=" M 0 0 L 1208 0 L 1208 623 L 0 623 L 0 0 Z"/></clipPath></defs><g transform="scale(1,1)" clip-path="url(#ZdqUgFnOBDFO)"><g><rect fill="rgb(255,255,255)" stroke="none" x="0" y="0" width="1208" height="623" fill-opacity="1"/><path fill="none" stroke="rgb(192,192,192)" paint-order="fill stroke markers" d=" M 9.5 0.5 L 9.5 623.5 M 9.5 0.5 L 9.5 623.5 M 76.5 0.5 L 76.5 623.5 M 144.5 0.5 L 144.5 623.5 M 211.5 0.5 L 211.5 623.5 M 279.5 0.5 L 279.5 623.5 M 347.5 0.5 L 347.5 623.5 M 414.5 0.5 L 414.5 623.5 M 482.5 0.5 L 482.5 623.5 M 549.5 0.5 L 549.5 623.5 M 617.5 0.5 L 617.5 623.5 M 684.5 0.5 L 684.5 623.5 M 752.5 0.5 L 752.5 623.5 M 820.5 0.5 L 820.5 623.5 M 887.5 0.5 L 887.5 623.5 M 955.5 0.5 L 955.5 623.5 M 1022.5 0.5 L 1022.5 623.5 M 1090.5 0.5 L 1090.5 623.5 M 1157.5 0.5 L 1157.5 623.5" stroke-opacity="1" stroke-linecap="round" stroke-linejoin="round" stroke-miterlimit="10"/><path fill="none" stroke="rgb(192,192,192)" paint-order="fill stroke markers" d=" M 22.5 0.5 L 22.5 623.5 M 36.5 0.5 L 36.5 623.5 M 49.5 0.5 L 49.5 623.5 M 63.5 0.5 L 63.5 623.5 M 90.5 0.5 L 90.5 623.5 M 103.5 0.5 L 103.5 623.5 M 117.5 0.5 L 117.5 623.5 M 130.5 0.5 L 130.5 623.5 M 157.5 0.5 L 157.5 623.5 M 171.5 0.5 L 171.5 623.5 M 184.5 0.5 L 184.5 623.5 M 198.5 0.5 L 198.5 623.5 M 225.5 0.5 L 225.5 623.5 M 238.5 0.5 L 238.5 623.5 M 252.5 0.5 L 252.5 623.5 M 266.5 0.5 L 266.5 623.5 M 293.5 0.5 L 293.5 623.5 M 306.5 0.5 L 306.5 623.5 M 320.5 0.5 L 320.5 623.5 M 333.5 0.5 L 333.5 623.5 M 360.5 0.5 L 360.5 623.5 M 374.5 0.5 L 374.5 623.5 M 387.5 0.5 L 387.5 623.5 M 401.5 0.5 L 401.5 623.5 M 428.5 0.5 L 428.5 623.5 M 441.5 0.5 L 441.5 623.5 M 455.5 0.5 L 455.5 623.5 M 468.5 0.5 L 468.5 623.5 M 495.5 0.5 L 495.5 623.5 M 509.5 0.5 L 509.5 623.5 M 522.5 0.5 L 522.5 623.5 M 536.5 0.5 L 536.5 623.5 M 563.5 0.5 L 563.5 623.5 M 576.5 0.5 L 576.5 623.5 M 590.5 0.5 L 590.5 623.5 M 603.5 0.5 L 603.5 623.5 M 630.5 0.5 L 630.5 623.5 M 644.5 0.5 L 644.5 623.5 M 657.5 0.5 L 657.5 623.5 M 671.5 0.5 L 671.5 623.5 M 698.5 0.5 L 698.5 623.5 M 711.5 0.5 L 711.5 623.5 M 725.5 0.5 L 725.5 623.5 M 738.5 0.5 L 738.5 623.5 M 765.5 0.5 L 765.5 623.5 M 779.5 0.5 L 779.5 623.5 M 793.5 0.5 L 793.5 623.5 M 806.5 0.5 L 806.5 623.5 M 833.5 0.5 L 833.5 623.5 M 847.5 0.5 L 847.5 623.5 M 860.5 0.5 L 860.5 623.5 M 874.5 0.5 L 874.5 623.5 M 901.5 0.5 L 901.5 623.5 M 914.5 0.5 L 914.5 623.5 M 928.5 0.5 L 928.5 623.5 M 941.5 0.5 L 941.5 623.5 M 968.5 0.5 L 968.5 623.5 M 982.5 0.5 L 982.5 623.5 M 995.5 0.5 L 995.5 623.5 M 1009.5 0.5 L 1009.5 623.5 M 1036.5 0.5 L 1036.5 623.5 M 1049.5 0.5 L 1049.5 623.5 M 1063.5 0.5 L 1063.5 623.5 M 1076.5 0.5 L 1076.5 623.5 M 1103.5 0.5 L 1103.5 623.5 M 1117.5 0.5 L 1117.5 623.5 M 1130.5 0.5 L 1130.5 623.5 M 1144.5 0.5 L 1144.5 623.5 M 1171.5 0.5 L 1171.5 623.5 M 1184.5 0.5 L 1184.5 623.5 M 1198.5 0.5 L 1198.5 623.5" stroke-opacity="0.23529411764705882" stroke-linecap="round" stroke-linejoin="round" stroke-miterlimit="10"/><path fill="none" stroke="rgb(192,192,192)" paint-order="fill stroke markers" d=" M 0.5 14.5 L 1208.5 14.5 M 0.5 14.5 L 1208.5 14.5 M 0.5 81.5 L 1208.5 81.5 M 0.5 149.5 L 1208.5 149.5 M 0.5 216.5 L 1208.5 216.5 M 0.5 284.5 L 1208.5 284.5 M 0.5 351.5 L 1208.5 351.5 M 0.5 419.5 L 1208.5 419.5 M 0.5 486.5 L 1208.5 486.5 M 0.5 554.5 L 1208.5 554.5 M 0.5 622.5 L 1208.5 622.5" stroke-opacity="1" stroke-linecap="round" stroke-linejoin="round" stroke-miterlimit="10"/><path fill="none" stroke="rgb(192,192,192)" paint-order="fill stroke markers" d=" M 0.5 0.5 L 1208.5 0.5 M 0.5 0.5 L 1208.5 0.5 M 0.5 27.5 L 1208.5 27.5 M 0.5 41.5 L 1208.5 41.5 M 0.5 54.5 L 1208.5 54.5 M 0.5 68.5 L 1208.5 68.5 M 0.5 95.5 L 1208.5 95.5 M 0.5 108.5 L 1208.5 108.5 M 0.5 122.5 L 1208.5 122.5 M 0.5 135.5 L 1208.5 135.5 M 0.5 162.5 L 1208.5 162.5 M 0.5 176.5 L 1208.5 176.5 M 0.5 189.5 L 1208.5 189.5 M 0.5 203.5 L 1208.5 203.5 M 0.5 230.5 L 1208.5 230.5 M 0.5 243.5 L 1208.5 243.5 M 0.5 257.5 L 1208.5 257.5 M 0.5 270.5 L 1208.5 270.5 M 0.5 297.5 L 1208.5 297.5 M 0.5 311.5 L 1208.5 311.5 M 0.5 324.5 L 1208.5 324.5 M 0.5 338.5 L 1208.5 338.5 M 0.5 365.5 L 1208.5 365.5 M 0.5 378.5 L 1208.5 378.5 M 0.5 392.5 L 1208.5 392.5 M 0.5 405.5 L 1208.5 405.5 M 0.5 432.5 L 1208.5 432.5 M 0.5 446.5 L 1208.5 446.5 M 0.5 459.5 L 1208.5 459.5 M 0.5 473.5 L 1208.5 473.5 M 0.5 500.5 L 1208.5 500.5 M 0.5 513.5 L 1208.5 513.5 M 0.5 527.5 L 1208.5 527.5 M 0.5 540.5 L 1208.5 540.5 M 0.5 568.5 L 1208.5 568.5 M 0.5 581.5 L 1208.5 581.5 M 0.5 595.5 L 1208.5 595.5 M 0.5 608.5 L 1208.5 608.5" stroke-opacity="0.23529411764705882" stroke-linecap="round" stroke-linejoin="round" stroke-miterlimit="10"/><path fill="rgb(110,109,115)" stroke="none" paint-order="stroke fill markers" fill-rule="evenodd" d=" M 482.21647549256295 486.9438175425171 L 482.21647549256295 216.6960811003498 L 76.84487082931253 216.6960811003498 L 76.84487082931253 486.9438175425171 Z" fill-opacity="0.09803921568627451"/><path fill="none" stroke="rgb(211,47,47)" paint-order="fill stroke markers" d=" M 482.2164768438016 243.7208547445665 L 486.03125 243.71494557752203 M 486.03125 243.71494557752203 L 490.75 243.69128838286673 M 490.75 243.69128838286673 L 495.46875 243.6495631949511 L 500.1875 243.58979091064026 L 504.90625 243.51200140907184 L 509.625 243.4162334772032 L 514.34375 243.30253471357088 L 519.0625 243.17096141081737 L 523.78125 243.02157841765563 L 528.5 242.8544589810548 M 528.5 242.8544589810548 L 533.21875 242.66968456952992 L 537.9375 242.46734467851488 L 542.65625 242.2475366188803 L 547.375 242.01036528973282 L 552.09375 241.75594293669394 L 556.8125 241.4843888969123 L 561.53125 241.1958293320989 L 566.25 240.8903969509107 L 570.96875 240.56823072202144 L 575.6875 240.22947557923044 L 580.40625 239.8742821199549 L 585.125 239.50280629844067 L 589.84375 239.11520911500298 L 594.5625 238.71165630257966 L 599.28125 238.29231801183934 L 604 237.85736849604268 M 604 237.85736849604268 L 608.71875 237.40698579680196 L 613.4375 236.9413514318269 L 618.15625 236.46065008568252 L 622.875 235.96506930451972 L 627.59375 235.45479919566873 L 632.3125 234.93003213291632 L 637.03125 234.39096246821495 L 641.75 233.83778625049857 L 646.46875 233.2707009522079 L 651.1875 232.68990520405595 L 655.90625 232.09559853849274 L 660.625 231.48798114226128 L 665.34375 230.86725361836812 L 670.0625 230.2336167577293 L 674.78125 229.5872713206903 L 679.5 228.9284178285621 L 684.21875 228.25725636525937 L 688.9375 227.5739863890771 L 693.65625 226.87880655459495 L 698.375 226.17191454465345 L 703.09375 225.45350691230868 L 707.8125 224.7237789326341 L 712.53125 223.98292446420703 L 717.25 223.2311358200877 L 721.96875 222.4686036480738 L 726.6875 221.69551681999118 L 731.40625 220.91206232976216 L 736.125 220.11842519997808 L 740.84375 219.31478839668776 L 745.5625 218.5013327521053 L 750.28125 217.67823689493028 L 755 216.84567718797038 L 759.71875 216.00382767275008 L 764.4375 215.15286002078977 L 769.15625 214.292943491238 L 773.875 213.4242448945422 L 778.59375 212.5469285618455 L 783.3125 211.66115631980216 L 788.03125 210.76708747050895 L 792.75 209.86487877625646 L 797.46875 208.9546844488105 L 802.1875 208.03665614294349 L 806.90625 207.11094295394156 L 811.625 206.17769141882343 L 816.34375 205.2370455210166 L 821.0625 204.28914669824394 L 825.78125 203.33413385338588 L 830.5 202.37214336809066 L 835.21875 201.4033091189171 L 839.9375 200.42776249580217 L 844.65625 199.44563242265687 L 849.375 198.45704537990312 L 854.09375 197.46212542877265 L 858.8125 196.46099423720074 L 863.53125 195.45377110715356 L 868.25 194.44057300323988 L 872.96875 193.42151458246403 L 877.6875 192.3967082249864 L 882.40625 191.3662640657668 L 887.125 190.33029002697108 L 891.84375 189.28889185103222 L 896.5625 188.24217313426138 L 901.28125 187.19023536091362 L 906 186.13317793761738 L 910.71875 185.07109822808516 L 915.4375 184.00409158802773 L 920.15625 182.93225140019925 L 924.875 181.85566910950843 L 929.59375 180.77443425813274 L 934.3125 179.68863452058076 L 939.03125 178.59835573865007 L 943.75 177.50368195623295 L 948.46875 176.40469545392776 L 953.1875 175.3014767834148 L 957.90625 174.1941048015626 L 962.625 173.08265670423003 L 967.34375 171.96720805973743 L 972.0625 170.84783284197772 L 976.78125 169.72460346314642 L 981.5 168.5975908060684 L 986.21875 167.46686425610264 L 990.9375 166.33249173260995 L 995.6562499999999 165.19453971996893 L 1000.375 164.0530732981274 L 1005.09375 162.90815617268086 L 1009.8125 161.75985070446723 L 1014.53125 160.60821793867254 L 1019.25 159.4533176334413 L 1023.96875 158.29520828798704 L 1028.6875 157.13394717020094 L 1033.40625 155.96959034375564 L 1038.125 154.80219269470413 L 1042.84375 153.63180795757341 L 1047.5625 152.45848874095432 L 1052.28125 151.28228655258886 L 1057 150.10325182395783 L 1061.71875 148.92143393437186 L 1066.4375 147.73688123456935 L 1071.15625 146.54964106982615 L 1075.875 145.35975980258098 L 1080.59375 144.16728283458232 L 1085.3125 142.97225462856233 L 1090.03125 141.77471872944326 L 1094.75 140.57471778508304 L 1099.46875 139.3722935665661 L 1104.1875 138.16748698804662 L 1108.90625 136.96033812615025 L 1113.625 135.7508862389422 L 1118.34375 134.53916978446833 L 1123.0625 133.32522643887674 L 1127.78125 132.1090931141272 L 1132.5 130.89080597529565 L 1137.21875 129.6704004574816 L 1141.9375 128.4479112823255 L 1146.65625 127.22337247414399 L 1151.375 125.99681737569045 L 1156.09375 124.76827866354807 L 1160.8125 123.53778836316326 L 1165.53125 122.30537786352653 L 1170.25 121.07107793150863 L 1174.96875 119.83491872585853 L 1179.6875 118.59692981087164 L 1184.40625 117.35714016973378 L 1189.125 116.11557821755017 L 1193.84375 114.87227181406425 L 1198.5625 113.6272482760746 L 1203.28125 112.38053438955666 L 1208 111.1321564214951" stroke-opacity="0.8" stroke-linecap="round" stroke-linejoin="round" stroke-miterlimit="10" stroke-width="2.5"/><path fill="none" stroke="rgb(211,47,47)" paint-order="fill stroke markers" d=" M 482.2164768438016 459.9190438983004 L 486.03125 459.9249530653449 M 486.03125 459.9249530653449 L 490.75 459.9486102600002 M 490.75 459.9486102600002 L 495.46875 459.9903354479158 L 500.1875 460.05010773222665 L 504.90625 460.12789723379507 L 509.625 460.2236651656637 L 514.34375 460.33736392929603 L 519.0625 460.46893723204954 L 523.78125 460.6183202252113 L 528.5 460.7854396618121 M 528.5 460.7854396618121 L 533.21875 460.970214073337 L 537.9375 461.172553964352 L 542.65625 461.3923620239866 L 547.375 461.6295333531341 L 552.09375 461.88395570617297 L 556.8125 462.15550974595465 L 561.53125 462.444069310768 L 566.25 462.7495016919562 L 570.96875 463.07166792084547 L 575.6875 463.4104230636365 L 580.40625 463.765616522912 L 585.125 464.13709234442626 L 589.84375 464.5246895278639 L 594.5625 464.9282423402873 L 599.28125 465.34758063102754 L 604 465.78253014682423 M 604 465.78253014682423 L 608.71875 466.23291284606495 L 613.4375 466.69854721104 L 618.15625 467.1792485571844 L 622.875 467.6748293383472 L 627.59375 468.1850994471982 L 632.3125 468.7098665099506 L 637.03125 469.24893617465193 L 641.75 469.8021123923684 L 646.46875 470.369197690659 L 651.1875 470.94999343881096 L 655.90625 471.5443001043742 L 660.625 472.15191750060563 L 665.34375 472.7726450244988 L 670.0625 473.4062818851376 L 674.78125 474.0526273221766 L 679.5 474.7114808143048 L 684.21875 475.38264227760754 L 688.9375 476.0659122537898 L 693.65625 476.761092088272 L 698.375 477.4679840982135 L 703.09375 478.1863917305582 L 707.8125 478.9161197102328 L 712.53125 479.6569741786599 L 717.25 480.4087628227792 L 721.96875 481.17129499479313 L 726.6875 481.9443818228757 L 731.40625 482.7278363131047 L 736.125 483.5214734428888 L 740.84375 484.3251102461792 L 745.5625 485.1385658907616 L 750.28125 485.96166174793666 L 755 486.7942214548965 L 759.71875 487.63607097011686 L 764.4375 488.48703862207714 L 769.15625 489.3469551516289 L 773.875 490.2156537483247 L 778.59375 491.0929700810214 L 783.3125 491.97874232306475 L 788.03125 492.87281117235796 L 792.75 493.7750198666105 L 797.46875 494.6852141940564 L 802.1875 495.60324249992345 L 806.90625 496.52895568892535 L 811.625 497.4622072240435 L 816.34375 498.4028531218503 L 821.0625 499.35075194462297 L 825.78125 500.30576478948103 L 830.5 501.2677552747763 L 835.21875 502.2365895239498 L 839.9375 503.2121361470647 L 844.65625 504.19426622021 L 849.375 505.1828532629638 L 854.09375 506.17777321409426 L 858.8125 507.1789044056662 L 863.53125 508.18612753571335 L 868.25 509.19932563962703 L 872.96875 510.21838406040285 L 877.6875 511.2431904178805 L 882.40625 512.2736345771001 L 887.125 513.3096086158959 L 891.84375 514.3510067918347 L 896.5625 515.3977255086055 L 901.28125 516.4496632819532 L 906 517.5067207052496 L 910.71875 518.5688004147818 L 915.4375 519.6358070548392 L 920.15625 520.7076472426677 L 924.875 521.7842295333585 L 929.59375 522.8654643847342 L 934.3125 523.9512641222861 L 939.03125 525.0415429042168 L 943.75 526.1362166866339 L 948.46875 527.2352031889392 L 953.1875 528.3384218594521 L 957.90625 529.4457938413043 L 962.625 530.5572419386369 L 967.34375 531.6726905831295 L 972.0625 532.7920658008892 L 976.78125 533.9152951797205 L 981.5 535.0423078367985 L 986.21875 536.1730343867642 L 990.9375 537.307406910257 L 995.6562499999999 538.445358922898 L 1000.375 539.5868253447395 L 1005.09375 540.7317424701861 L 1009.8125 541.8800479383997 L 1014.53125 543.0316807041944 L 1019.25 544.1865810094256 L 1023.96875 545.3446903548798 L 1028.6875 546.505951472666 L 1033.40625 547.6703082991113 L 1038.125 548.8377059481628 L 1042.84375 550.0080906852935 L 1047.5625 551.1814099019126 L 1052.28125 552.357612090278 L 1057 553.536646818909 L 1061.71875 554.718464708495 L 1066.4375 555.9030174082975 L 1071.15625 557.0902575730407 L 1075.875 558.2801388402859 L 1080.59375 559.4726158082846 L 1085.3125 560.6676440143046 L 1090.03125 561.8651799134236 L 1094.75 563.0651808577838 L 1099.46875 564.2676050763008 L 1104.1875 565.4724116548202 L 1108.90625 566.6795605167167 L 1113.625 567.8890124039247 L 1118.34375 569.1007288583986 L 1123.0625 570.3146722039902 L 1127.78125 571.5308055287397 L 1132.5 572.7490926675713 L 1137.21875 573.9694981853853 L 1141.9375 575.1919873605414 L 1146.65625 576.416526168723 L 1151.375 577.6430812671765 L 1156.09375 578.8716199793189 L 1160.8125 580.1021102797037 L 1165.53125 581.3345207793404 L 1170.25 582.5688207113583 L 1174.96875 583.8049799170084 L 1179.6875 585.0429688319953 L 1184.40625 586.2827584731331 L 1189.125 587.5243204253168 L 1193.84375 588.7676268288027 L 1198.5625 590.0126503667923 L 1203.28125 591.2593642533102 L 1208 592.5077422213718" stroke-opacity="0.8" stroke-linecap="round" stroke-linejoin="round" stroke-miterlimit="10" stroke-width="2.5"/><path fill="none" stroke="rgb(0,103,88)" paint-order="fill stroke markers" d=" M 482.21647549256295 351.81994932143346 L 847.0509196894884 351.81994932143346" stroke-opacity="0.6980392156862745" stroke-linecap="round" stroke-linejoin="round" stroke-miterlimit="10" stroke-width="2.5"/><path fill="none" stroke="rgb(110,109,115)" paint-order="fill stroke markers" d=" M 482.21647549256295 216.6960811003498 L 76.84487082931253 216.6960811003498" stroke-opacity="0.6980392156862745" stroke-linecap="round" stroke-linejoin="round" stroke-miterlimit="10" stroke-width="2.5"/><path fill="none" stroke="rgb(110,109,115)" paint-order="fill stroke markers" d=" M 76.84487082931253 216.6960811003498 L 76.84487082931253 486.9438175425171" stroke-opacity="0.6980392156862745" stroke-linecap="round" stroke-linejoin="round" stroke-miterlimit="10" stroke-width="2.5"/><path fill="none" stroke="rgb(110,109,115)" paint-order="fill stroke markers" d=" M 76.84487082931253 486.9438175425171 L 482.21647549256295 486.9438175425171" stroke-opacity="0.6980392156862745" stroke-linecap="round" stroke-linejoin="round" stroke-miterlimit="10" stroke-width="2.5"/><g transform="scale(35,35)"><g transform="translate(14.028571428571428,8.373857142857142)"><path fill="rgb(21,101,192)" stroke="none" paint-order="stroke fill markers" d=" M 0.462 -0.339 L 0.42 -0.171 Q 0.40900000000000003 -0.132 0.40900000000000003 -0.098 Q 0.417 -0.016 0.483 -0.011 Q 0.55 -0.011 0.593 -0.099 Q 0.627 -0.167 0.644 -0.252 Q 0.648 -0.271 0.648 -0.28200000000000003 Q 0.648 -0.331 0.612 -0.367 Q 0.597 -0.38 0.597 -0.394 Q 0.597 -0.419 0.624 -0.435 Q 0.635 -0.442 0.647 -0.442 Q 0.675 -0.442 0.686 -0.40700000000000003 Q 0.6910000000000001 -0.392 0.6910000000000001 -0.372 Q 0.6910000000000001 -0.31 0.651 -0.183 Q 0.638 -0.14200000000000002 0.625 -0.112 Q 0.5720000000000001 0.011 0.48 0.011 Q 0.383 0.011 0.355 -0.059000000000000004 Q 0.315 0.011 0.251 0.011 Q 0.153 0.011 0.121 -0.056 Q 0.109 -0.082 0.109 -0.115 Q 0.109 -0.166 0.162 -0.31 Q 0.164 -0.313 0.165 -0.317 Q 0.183 -0.361 0.183 -0.387 Q 0.183 -0.42 0.158 -0.42 Q 0.097 -0.42 0.061 -0.309 Q 0.059000000000000004 -0.303 0.057 -0.296 Q 0.046 -0.279 0.041 -0.278 Q 0.029 -0.278 0.029 -0.28800000000000003 Q 0.029 -0.306 0.05 -0.35100000000000003 Q 0.094 -0.442 0.161 -0.442 Q 0.213 -0.442 0.234 -0.398 Q 0.243 -0.381 0.243 -0.36 Q 0.243 -0.342 0.226 -0.296 Q 0.17400000000000002 -0.16 0.17400000000000002 -0.10200000000000001 Q 0.17400000000000002 -0.013000000000000001 0.254 -0.011 Q 0.31 -0.011 0.34600000000000003 -0.095 Q 0.34500000000000003 -0.1 0.34500000000000003 -0.113 Q 0.34500000000000003 -0.14 0.354 -0.179 L 0.41100000000000003 -0.403 Q 0.42 -0.429 0.448 -0.431 Q 0.47300000000000003 -0.426 0.47700000000000004 -0.404 Q 0.47700000000000004 -0.405 0.462 -0.339 Z"/></g><g transform="translate(14.744571428571428,8.523857142857143) scale(0.7,0.7)"><path fill="rgb(21,101,192)" stroke="none" paint-order="stroke fill markers" d=" M 0.46 -0.32 Q 0.46 -0.17400000000000002 0.423 -0.094 Q 0.364 0.018000000000000002 0.249 0.022 Q 0.158 0.022 0.10300000000000001 -0.05 Q 0.092 -0.063 0.084 -0.079 Q 0.039 -0.162 0.039 -0.32 Q 0.039 -0.467 0.076 -0.547 Q 0.126 -0.659 0.23800000000000002 -0.666 L 0.25 -0.666 Q 0.339 -0.666 0.395 -0.595 L 0.395 -0.594 Q 0.40900000000000003 -0.5760000000000001 0.42 -0.554 Q 0.46 -0.46900000000000003 0.46 -0.32 M 0.249 0 L 0.249 0 Q 0.312 0 0.34600000000000003 -0.061 Q 0.36 -0.088 0.366 -0.125 Q 0.377 -0.189 0.377 -0.332 Q 0.377 -0.47100000000000003 0.367 -0.527 Q 0.34900000000000003 -0.622 0.275 -0.641 Q 0.262 -0.644 0.249 -0.644 Q 0.179 -0.644 0.147 -0.5740000000000001 Q 0.136 -0.55 0.13 -0.516 Q 0.122 -0.462 0.122 -0.332 Q 0.122 -0.181 0.133 -0.121 Q 0.151 -0.025 0.221 -0.004 Q 0.23500000000000001 0 0.249 0 Z"/></g></g><g transform="scale(35,35)"><g transform="translate(16.942857142857143,11.088142857142856)"><path fill="rgb(0,103,88)" stroke="none" paint-order="stroke fill markers" d=" M 0.133 -0.083 L 0.133 -0.083 Q 0.14200000000000002 -0.08600000000000001 0.16 -0.08600000000000001 Q 0.186 -0.08600000000000001 0.23 -0.069 Q 0.269 -0.056 0.289 -0.056 Q 0.342 -0.056 0.38 -0.094 Q 0.4 -0.113 0.40900000000000003 -0.14 Q 0.41500000000000004 -0.153 0.423 -0.153 Q 0.435 -0.153 0.435 -0.14300000000000002 Q 0.435 -0.117 0.403 -0.069 Q 0.34900000000000003 0.011 0.278 0.011 Q 0.244 0.011 0.214 -0.026000000000000002 Q 0.186 -0.059000000000000004 0.169 -0.063 Q 0.164 -0.064 0.156 -0.064 Q 0.112 -0.064 0.07100000000000001 -0.002 Q 0.064 0.011 0.055 0.011 Q 0.043000000000000003 0.011 0.043000000000000003 0.001 Q 0.043000000000000003 -0.011 0.089 -0.067 Q 0.115 -0.099 0.146 -0.13 L 0.23600000000000002 -0.214 Q 0.335 -0.298 0.375 -0.34500000000000003 Q 0.339 -0.34500000000000003 0.298 -0.36 Q 0.255 -0.375 0.23500000000000001 -0.375 Q 0.177 -0.375 0.155 -0.337 Q 0.152 -0.333 0.15 -0.328 Q 0.146 -0.317 0.137 -0.317 Q 0.125 -0.317 0.125 -0.328 Q 0.125 -0.35000000000000003 0.154 -0.388 Q 0.194 -0.442 0.246 -0.442 Q 0.279 -0.442 0.308 -0.40700000000000003 L 0.309 -0.406 Q 0.311 -0.403 0.315 -0.399 Q 0.339 -0.372 0.354 -0.368 Q 0.36 -0.367 0.366 -0.367 Q 0.4 -0.367 0.437 -0.425 L 0.441 -0.431 Q 0.447 -0.442 0.456 -0.442 Q 0.467 -0.442 0.467 -0.432 Q 0.467 -0.42 0.425 -0.368 Q 0.395 -0.331 0.35000000000000003 -0.28700000000000003 Q 0.34400000000000003 -0.281 0.255 -0.2 L 0.252 -0.197 Q 0.187 -0.14100000000000001 0.133 -0.083 Z"/></g><g transform="translate(17.407857142857143,11.238142857142856) scale(0.7,0.7)"><path fill="rgb(0,103,88)" stroke="none" paint-order="stroke fill markers" d=" M 0.088 -0.059000000000000004 L 0.088 -0.059000000000000004 L 0.146 -0.29 Q 0.162 -0.354 0.162 -0.374 Q 0.162 -0.42 0.131 -0.42 Q 0.09 -0.42 0.064 -0.325 Q 0.061 -0.314 0.058 -0.301 Q 0.047 -0.279 0.041 -0.278 Q 0.029 -0.278 0.029 -0.28800000000000003 Q 0.029 -0.304 0.047 -0.355 Q 0.054 -0.373 0.06 -0.385 Q 0.084 -0.434 0.12 -0.441 Q 0.127 -0.442 0.134 -0.442 Q 0.19 -0.442 0.215 -0.394 Q 0.221 -0.383 0.224 -0.37 Q 0.225 -0.368 0.225 -0.365 Q 0.28300000000000003 -0.437 0.353 -0.442 Q 0.40900000000000003 -0.442 0.429 -0.403 Q 0.436 -0.391 0.436 -0.377 Q 0.436 -0.338 0.403 -0.323 Q 0.392 -0.318 0.381 -0.318 Q 0.35000000000000003 -0.318 0.34400000000000003 -0.34500000000000003 Q 0.343 -0.34900000000000003 0.343 -0.353 Q 0.343 -0.386 0.377 -0.402 L 0.378 -0.403 Q 0.386 -0.406 0.395 -0.40800000000000003 L 0.375 -0.417 Q 0.362 -0.419 0.353 -0.42 Q 0.311 -0.42 0.273 -0.387 Q 0.242 -0.359 0.22 -0.313 Q 0.218 -0.308 0.217 -0.305 L 0.185 -0.17500000000000002 L 0.145 -0.017 Q 0.136 0.009000000000000001 0.108 0.011 Q 0.083 0.006 0.079 -0.016 Q 0.079 -0.014 0.088 -0.059000000000000004 Z"/></g></g><g transform="scale(35,35)"><g transform="translate(24.742857142857144,6.7214285714285715)"><path fill="rgb(211,47,47)" stroke="none" paint-order="stroke fill markers" d=" M 0.462 -0.339 L 0.42 -0.171 Q 0.40900000000000003 -0.132 0.40900000000000003 -0.098 Q 0.417 -0.016 0.483 -0.011 Q 0.55 -0.011 0.593 -0.099 Q 0.627 -0.167 0.644 -0.252 Q 0.648 -0.271 0.648 -0.28200000000000003 Q 0.648 -0.331 0.612 -0.367 Q 0.597 -0.38 0.597 -0.394 Q 0.597 -0.419 0.624 -0.435 Q 0.635 -0.442 0.647 -0.442 Q 0.675 -0.442 0.686 -0.40700000000000003 Q 0.6910000000000001 -0.392 0.6910000000000001 -0.372 Q 0.6910000000000001 -0.31 0.651 -0.183 Q 0.638 -0.14200000000000002 0.625 -0.112 Q 0.5720000000000001 0.011 0.48 0.011 Q 0.383 0.011 0.355 -0.059000000000000004 Q 0.315 0.011 0.251 0.011 Q 0.153 0.011 0.121 -0.056 Q 0.109 -0.082 0.109 -0.115 Q 0.109 -0.166 0.162 -0.31 Q 0.164 -0.313 0.165 -0.317 Q 0.183 -0.361 0.183 -0.387 Q 0.183 -0.42 0.158 -0.42 Q 0.097 -0.42 0.061 -0.309 Q 0.059000000000000004 -0.303 0.057 -0.296 Q 0.046 -0.279 0.041 -0.278 Q 0.029 -0.278 0.029 -0.28800000000000003 Q 0.029 -0.306 0.05 -0.35100000000000003 Q 0.094 -0.442 0.161 -0.442 Q 0.213 -0.442 0.234 -0.398 Q 0.243 -0.381 0.243 -0.36 Q 0.243 -0.342 0.226 -0.296 Q 0.17400000000000002 -0.16 0.17400000000000002 -0.10200000000000001 Q 0.17400000000000002 -0.013000000000000001 0.254 -0.011 Q 0.31 -0.011 0.34600000000000003 -0.095 Q 0.34500000000000003 -0.1 0.34500000000000003 -0.113 Q 0.34500000000000003 -0.14 0.354 -0.179 L 0.41100000000000003 -0.403 Q 0.42 -0.429 0.448 -0.431 Q 0.47300000000000003 -0.426 0.47700000000000004 -0.404 Q 0.47700000000000004 -0.405 0.462 -0.339 Z"/></g><g transform="translate(25.485857142857142,6.7214285714285715)"><path fill="rgb(211,47,47)" stroke="none" paint-order="stroke fill markers" d=" M 0.331 0.24 L 0.331 0.24 Q 0.331 0.25 0.321 0.25 Q 0.309 0.25 0.268 0.209 Q 0.20600000000000002 0.147 0.165 0.062 Q 0.099 -0.074 0.099 -0.25 Q 0.099 -0.419 0.162 -0.555 Q 0.214 -0.666 0.294 -0.733 Q 0.315 -0.75 0.321 -0.75 Q 0.331 -0.75 0.331 -0.74 Q 0.331 -0.735 0.318 -0.723 Q 0.157 -0.559 0.157 -0.25 Q 0.157 0.058 0.314 0.218 Q 0.331 0.23500000000000001 0.331 0.24 Z"/></g><g transform="translate(25.87485714285714,6.7214285714285715)"><path fill="rgb(211,47,47)" stroke="none" paint-order="stroke fill markers" d=" M 0.133 -0.083 L 0.133 -0.083 Q 0.14200000000000002 -0.08600000000000001 0.16 -0.08600000000000001 Q 0.186 -0.08600000000000001 0.23 -0.069 Q 0.269 -0.056 0.289 -0.056 Q 0.342 -0.056 0.38 -0.094 Q 0.4 -0.113 0.40900000000000003 -0.14 Q 0.41500000000000004 -0.153 0.423 -0.153 Q 0.435 -0.153 0.435 -0.14300000000000002 Q 0.435 -0.117 0.403 -0.069 Q 0.34900000000000003 0.011 0.278 0.011 Q 0.244 0.011 0.214 -0.026000000000000002 Q 0.186 -0.059000000000000004 0.169 -0.063 Q 0.164 -0.064 0.156 -0.064 Q 0.112 -0.064 0.07100000000000001 -0.002 Q 0.064 0.011 0.055 0.011 Q 0.043000000000000003 0.011 0.043000000000000003 0.001 Q 0.043000000000000003 -0.011 0.089 -0.067 Q 0.115 -0.099 0.146 -0.13 L 0.23600000000000002 -0.214 Q 0.335 -0.298 0.375 -0.34500000000000003 Q 0.339 -0.34500000000000003 0.298 -0.36 Q 0.255 -0.375 0.23500000000000001 -0.375 Q 0.177 -0.375 0.155 -0.337 Q 0.152 -0.333 0.15 -0.328 Q 0.146 -0.317 0.137 -0.317 Q 0.125 -0.317 0.125 -0.328 Q 0.125 -0.35000000000000003 0.154 -0.388 Q 0.194 -0.442 0.246 -0.442 Q 0.279 -0.442 0.308 -0.40700000000000003 L 0.309 -0.406 Q 0.311 -0.403 0.315 -0.399 Q 0.339 -0.372 0.354 -0.368 Q 0.36 -0.367 0.366 -0.367 Q 0.4 -0.367 0.437 -0.425 L 0.441 -0.431 Q 0.447 -0.442 0.456 -0.442 Q 0.467 -0.442 0.467 -0.432 Q 0.467 -0.42 0.425 -0.368 Q 0.395 -0.331 0.35000000000000003 -0.28700000000000003 Q 0.34400000000000003 -0.281 0.255 -0.2 L 0.252 -0.197 Q 0.187 -0.14100000000000001 0.133 -0.083 Z"/></g><g transform="translate(26.383857142857142,6.7214285714285715)"><path fill="rgb(211,47,47)" stroke="none" paint-order="stroke fill markers" d=" M 0.289 -0.25 L 0.289 -0.25 Q 0.289 -0.081 0.226 0.055 Q 0.17400000000000002 0.166 0.094 0.233 Q 0.073 0.25 0.067 0.25 Q 0.057 0.25 0.057 0.24 Q 0.057 0.23500000000000001 0.07 0.223 Q 0.231 0.059000000000000004 0.231 -0.25 Q 0.231 -0.555 0.081 -0.712 L 0.076 -0.717 Q 0.057 -0.735 0.057 -0.74 Q 0.057 -0.75 0.067 -0.75 Q 0.079 -0.75 0.12 -0.709 Q 0.182 -0.647 0.223 -0.562 Q 0.289 -0.426 0.289 -0.25 Z"/></g></g><path fill="none" stroke="rgb(21,101,192)" paint-order="fill stroke markers" d=" M 482.21647549256295 351.81994932143346 L 482.21647549256295 243.7208547445665" stroke-opacity="0.6980392156862745" stroke-linecap="round" stroke-linejoin="round" stroke-miterlimit="10" stroke-width="2.5"/><text fill="rgb(0,0,0)" stroke="none" font-family="geogebra-sans-serif, sans-serif" font-size="32px" font-style="normal" font-weight="normal" text-decoration="normal" x="205" y="363" text-anchor="start" dominant-baseline="alphabetic" fill-opacity="1">Laser</text></g></g></svg>